<?xml version="1.0" encoding="utf-8"?>
<!-- Generator: Adobe Illustrator 25.0.0, SVG Export Plug-In . SVG Version: 6.00 Build 0)  -->
<svg version="1.1" id="Layer_1" xmlns="http://www.w3.org/2000/svg" xmlns:xlink="http://www.w3.org/1999/xlink" x="0px" y="0px"
	 viewBox="0 0 21.9 13.8" style="enable-background:new 0 0 21.9 13.8;" xml:space="preserve">
<style type="text/css">
	.st0{fill:#969594;}
	.st1{fill:#CCCCCC;}
</style>
<path class="st0" d="M4.8,13.8c1.9,0,11.2,0,13.3,0s3.7-2.1,3.7-3.8C22,6.7,18.5,6,18.5,6s0.6-2.3-1-3.5s-3.9,0-3.9,0S12.5,0,8.7,0
	C3.1,0.1,3.4,5.2,3.4,5.2S0,5.6,0,9.6C0,12.2,2.9,13.8,4.8,13.8z"/>
<path class="st1" d="M13.1,13.8c0.9,0,5.6,0,6.6,0c1,0,1.8-1,1.8-1.9c0-1.6-1.7-1.9-1.7-1.9s0.3-1.1-0.5-1.7c-0.8-0.6-1.9,0-1.9,0
	S16.9,7,15,7c-2.8,0.1-2.6,2.6-2.6,2.6s-1.7,0.2-1.7,2.2C10.7,13,12.2,13.8,13.1,13.8z"/>
<path class="st1" d="M4.5,13.8c0.9,0,5.6,0,6.6,0s1.8-1,1.8-1.9c0-1.6-1.7-1.9-1.7-1.9s0.3-1.1-0.5-1.7s-1.9,0-1.9,0S8.3,7,6.4,7
	C3.7,7,3.8,9.5,3.8,9.5s-1.7,0.2-1.7,2.2C2.1,13,3.6,13.8,4.5,13.8z"/>
</svg>
