<?xml version="1.0" encoding="utf-8"?>
<!-- Generator: Adobe Illustrator 25.0.0, SVG Export Plug-In . SVG Version: 6.00 Build 0)  -->
<svg version="1.1" id="Layer_1" xmlns="http://www.w3.org/2000/svg" xmlns:xlink="http://www.w3.org/1999/xlink" x="0px" y="0px"
	 viewBox="0 0 59.1 22.1" style="enable-background:new 0 0 59.1 22.1;" xml:space="preserve">
<style type="text/css">
	.st0{fill:#FCDE58;}
	.st1{fill:#979797;}
</style>
<g id="XMLID_2_">
	<g>
		<path class="st0" d="M36.5,10.2c1.1,0.6,0.7,1.2,0,1.6c-0.7,0.3-3.9,1.9-3.9,1.9s1,3,1.3,4.1c0.3,1.1-0.4,1.4-1.3,1
			c-1-0.3-3.9-1.3-3.9-1.3s-1.5,3-1.9,3.9c-0.4,0.9-1.2,0.6-1.6,0c-0.4-0.6-2-4-2-4s-2.7,1-4,1.4c-1.3,0.4-1.4-0.4-1.3-1
			c0.2-0.6,1.4-4.2,1.4-4.2s-3.3-1.5-4.1-2.1c-0.9-0.5-0.1-1.2,0.4-1.5c0.5-0.2,3.8-1.8,3.8-1.8S18.2,4.3,18,3.8
			c-0.1-0.5,0.5-1,1-0.8c0.5,0.2,4.3,1.5,4.3,1.5s1.5-2.9,2-3.8c0.5-0.9,1.4-0.7,1.7,0c0.3,0.7,1.8,3.9,1.8,3.9s3.1-1.1,4.1-1.4
			c1-0.3,1.5,0.4,1.2,1.3c-0.3,0.9-1.4,4-1.4,4S35.4,9.6,36.5,10.2z M31.6,11c0-3.1-2.5-5.5-5.5-5.5s-5.5,2.5-5.5,5.5
			s2.5,5.5,5.5,5.5S31.6,14.1,31.6,11z"/>
	</g>
	<g>
	</g>
</g>
<circle class="st0" cx="25.7" cy="10.8" r="4.1"/>
<path class="st1" d="M32,15.4c1.3,0,7.7,0,9.1,0c1.4,0,2.5-1.5,2.5-2.7c0.1-2.3-2.3-2.8-2.3-2.8s0.4-1.7-0.7-2.5s-2.7,0-2.7,0
	s-0.7-1.8-3.3-1.8C30.8,5.5,31,9.2,31,9.2s-2.3,0.3-2.3,3.2C28.7,14.3,30.7,15.4,32,15.4z"/>
<path class="st1" d="M3.3,15.4c1.3,0,7.7,0,9.1,0s2.5-1.5,2.5-2.7c0.1-2.3-2.3-2.8-2.3-2.8s0.4-1.7-0.7-2.5s-2.7,0-2.7,0
	S8.5,5.5,5.9,5.5C2.1,5.5,2.3,9.2,2.3,9.2S0,9.5,0,12.3C0,14.3,2,15.4,3.3,15.4z"/>
<path class="st1" d="M47.5,15.4c1.3,0,7.7,0,9.1,0c1.4,0,2.5-1.5,2.5-2.7c0.1-2.3-2.3-2.8-2.3-2.8s0.4-1.7-0.7-2.5s-2.7,0-2.7,0
	s-0.7-1.8-3.3-1.8c-3.8,0.1-3.6,3.7-3.6,3.7s-2.3,0.3-2.3,3.2C44.2,14.3,46.2,15.4,47.5,15.4z"/>
</svg>
