<?xml version="1.0" encoding="utf-8"?>
<!-- Generator: Adobe Illustrator 25.0.0, SVG Export Plug-In . SVG Version: 6.00 Build 0)  -->
<svg version="1.1" id="Layer_1" xmlns="http://www.w3.org/2000/svg" xmlns:xlink="http://www.w3.org/1999/xlink" x="0px" y="0px"
	 viewBox="0 0 27 22.1" style="enable-background:new 0 0 27 22.1;" xml:space="preserve">
<style type="text/css">
	.st0{fill:#979797;}
	.st1{opacity:0.8;fill:#AFD7DB;}
</style>
<path class="st0" d="M7.3,13.9c1.9,0,11.2,0,13.3,0s3.7-2.1,3.7-3.9c0.1-3.3-3.3-4-3.3-4s0.6-2.3-1-3.5c-1.6-1.2-3.9,0-3.9,0
	S15,0,11.1,0C5.6,0.1,5.9,5.2,5.9,5.2S2.5,5.7,2.5,9.6C2.5,12.3,5.4,13.9,7.3,13.9z"/>
<path class="st1" d="M0.9,16.3h22.6c0.5,0,0.9,0.4,0.9,0.9v0.3c0,0.5-0.4,0.9-0.9,0.9H0.9c-0.5,0-0.9-0.4-0.9-0.9v-0.3
	C0,16.7,0.4,16.3,0.9,16.3z"/>
<path class="st1" d="M3.6,20h5c0.5,0,0.9,0.4,0.9,0.9v0.3c0,0.5-0.4,0.9-0.9,0.9h-5c-0.5,0-0.9-0.4-0.9-0.9v-0.3
	C2.7,20.4,3.1,20,3.6,20z"/>
<path class="st1" d="M12.3,20h13.8c0.5,0,0.9,0.4,0.9,0.9v0.3c0,0.5-0.4,0.9-0.9,0.9H12.3c-0.5,0-0.9-0.4-0.9-0.9v-0.3
	C11.4,20.4,11.8,20,12.3,20z"/>
</svg>
