<?xml version="1.0" encoding="utf-8"?>
<!-- Generator: Adobe Illustrator 25.0.0, SVG Export Plug-In . SVG Version: 6.00 Build 0)  -->
<svg version="1.1" id="Layer_1" xmlns="http://www.w3.org/2000/svg" xmlns:xlink="http://www.w3.org/1999/xlink" x="0px" y="0px"
	 viewBox="0 0 21.9 22.1" style="enable-background:new 0 0 21.9 22.1;" xml:space="preserve">
<style type="text/css">
	.st0{fill:#949393;}
	.st1{fill:#2780BA;}
	.st2{fill:#CBCBCA;}
	.st3{fill:#52BBCD;}
</style>
<path class="st0" d="M4.8,14.3c1.9,0,11.2,0,13.3,0s3.7-2.1,3.7-3.8c0.1-3.2-3.4-3.9-3.4-3.9s0.6-2.3-1-3.5s-3.9,0-3.9,0
	s-1.1-2.5-4.9-2.5C3.1,0.6,3.4,5.7,3.4,5.7S0,6.2,0,10.1C0,12.8,2.9,14.3,4.8,14.3z"/>
<circle class="st1" cx="2.3" cy="15.5" r="0.6"/>
<circle class="st1" cx="7.6" cy="15.5" r="0.6"/>
<circle class="st1" cx="10.3" cy="15.5" r="0.6"/>
<circle class="st1" cx="12.7" cy="15.5" r="0.6"/>
<circle class="st1" cx="20.7" cy="15.5" r="0.6"/>
<circle class="st1" cx="15.4" cy="15.5" r="0.6"/>
<circle class="st1" cx="2.3" cy="21" r="0.6"/>
<circle class="st1" cx="7.6" cy="21" r="0.6"/>
<circle class="st1" cx="10.3" cy="21" r="0.6"/>
<circle class="st1" cx="12.7" cy="21" r="0.6"/>
<circle class="st1" cx="20.7" cy="21" r="0.6"/>
<circle class="st1" cx="15.4" cy="21" r="0.6"/>
<path class="st2" d="M13.1,14.3c0.9,0,5.6,0,6.6,0c1,0,1.8-1,1.8-1.9c0-1.6-1.7-1.9-1.7-1.9s0.3-1.1-0.5-1.7c-0.8-0.6-1.9,0-1.9,0
	S16.9,7.5,15,7.5c-2.8,0.1-2.6,2.6-2.6,2.6s-1.7,0.2-1.7,2.2C10.7,13.6,12.2,14.3,13.1,14.3z"/>
<path class="st2" d="M4.5,14.3c0.9,0,5.6,0,6.6,0s1.8-1,1.8-1.9c0-1.6-1.7-1.9-1.7-1.9s0.3-1.1-0.5-1.7s-1.9,0-1.9,0
	S8.3,7.5,6.4,7.5c-2.8,0.1-2.6,2.6-2.6,2.6s-1.7,0.2-1.7,2.2C2.2,13.6,3.6,14.3,4.5,14.3z"/>
<path class="st3" d="M4.5,17.6c0,0,0-0.6,0-0.7s0-0.2,0.1-0.2c0.1,0,0.4,0,0.5,0s0.1,0,0.1,0.2c0,0.1,0,0.7,0,0.7s0.6-0.3,0.7-0.4
	c0.1,0,0.2,0,0.2,0c0,0.1,0.2,0.4,0.2,0.4c0,0,0,0.1-0.1,0.2c-0.2,0.1-0.7,0.4-0.7,0.4s0.7,0.4,0.7,0.4c0.1,0,0.1,0.2,0,0.2
	c0,0.1-0.2,0.3-0.2,0.4s-0.1,0.1-0.3,0c-0.1,0-0.6-0.4-0.6-0.4s0,0.6,0,0.7s-0.1,0.1-0.2,0.1s-0.4,0-0.5,0c0,0-0.1-0.1-0.1-0.2
	s0-0.7,0-0.7s-0.6,0.3-0.7,0.4s-0.2,0.1-0.2,0c-0.1-0.1-0.2-0.4-0.3-0.4c0-0.1,0-0.2,0.1-0.3c0.1-0.1,0.6-0.3,0.6-0.3
	s-0.6-0.4-0.7-0.5c-0.1-0.1,0-0.2,0-0.2c0-0.1,0.2-0.3,0.2-0.4c0,0,0.1-0.1,0.2,0C4,17.3,4.5,17.6,4.5,17.6z"/>
<path class="st3" d="M10.5,17.6c0,0,0-0.6,0-0.7s0-0.2,0.1-0.2s0.4,0,0.5,0s0.1,0,0.1,0.2c0,0.1,0,0.7,0,0.7s0.6-0.3,0.7-0.4
	c0.1,0,0.2,0,0.2,0c0,0.1,0.2,0.4,0.2,0.4s0,0.1-0.1,0.2c-0.2,0.1-0.7,0.4-0.7,0.4s0.7,0.4,0.7,0.4c0.1,0,0.1,0.2,0,0.2
	c0,0.1-0.2,0.3-0.2,0.4s-0.1,0.1-0.3,0c-0.1,0-0.6-0.4-0.6-0.4s0,0.6,0,0.7s-0.1,0.1-0.2,0.1c-0.1,0-0.4,0-0.5,0
	c0,0-0.1-0.1-0.1-0.2s0-0.7,0-0.7s-0.6,0.3-0.7,0.4c0,0-0.2,0.1-0.2,0c-0.1-0.1-0.2-0.4-0.3-0.4c0-0.1,0-0.2,0.1-0.3
	c0.1-0.1,0.6-0.3,0.6-0.3s-0.6-0.4-0.7-0.5c-0.1-0.1,0-0.2,0-0.2c0-0.1,0.2-0.3,0.2-0.4c0,0,0.1-0.1,0.2,0
	C9.9,17.3,10.5,17.6,10.5,17.6z"/>
<path class="st3" d="M17.7,17.6c0,0,0-0.6,0-0.7s0-0.2,0.1-0.2s0.4,0,0.5,0c0.1,0,0.1,0,0.1,0.2c0,0.1,0,0.7,0,0.7s0.6-0.3,0.7-0.4
	c0.1,0,0.2,0,0.2,0c0,0.1,0.2,0.4,0.2,0.4s0,0.1-0.1,0.2c-0.2,0.1-0.7,0.4-0.7,0.4s0.7,0.4,0.7,0.4c0.1,0,0.1,0.2,0,0.2
	c0,0.1-0.2,0.3-0.2,0.4s-0.1,0.1-0.3,0s-0.6-0.4-0.6-0.4s0,0.6,0,0.7s-0.1,0.1-0.2,0.1c-0.1,0-0.4,0-0.5,0s-0.1-0.1-0.1-0.2
	c0-0.1,0-0.7,0-0.7S17,19.3,17,19.3c0,0-0.2,0.1-0.2,0c-0.1-0.1-0.2-0.4-0.3-0.4c0-0.1,0-0.2,0.1-0.3c0.1-0.1,0.6-0.3,0.6-0.3
	s-0.6-0.4-0.7-0.5s0-0.2,0-0.2c0-0.1,0.2-0.3,0.2-0.4c0,0,0.1-0.1,0.2,0C17.1,17.3,17.7,17.6,17.7,17.6z"/>
<circle class="st1" cx="5" cy="15.5" r="0.6"/>
<circle class="st1" cx="18" cy="15.5" r="0.6"/>
<circle class="st1" cx="4.9" cy="21" r="0.6"/>
<circle class="st1" cx="18" cy="21" r="0.6"/>
</svg>
