<?xml version="1.0" encoding="utf-8"?>
<!-- Generator: Adobe Illustrator 25.0.0, SVG Export Plug-In . SVG Version: 6.00 Build 0)  -->
<svg version="1.1" id="Layer_1" xmlns="http://www.w3.org/2000/svg" xmlns:xlink="http://www.w3.org/1999/xlink" x="0px" y="0px"
	 viewBox="0 0 21.9 22.1" style="enable-background:new 0 0 21.9 22.1;" xml:space="preserve">
<style type="text/css">
	.st0{fill:#959494;}
	.st1{fill:#2780BB;}
	.st2{fill:#CCCCCC;}
</style>
<path class="st0" d="M4.8,13.9c1.9,0,11.2,0,13.3,0s3.7-2.1,3.7-3.8c0.1-3.2-3.4-3.9-3.4-3.9s0.6-2.3-1-3.5s-3.9,0-3.9,0
	s-1.1-2.5-4.9-2.5C3.1,0.2,3.4,5.3,3.4,5.3S0,5.8,0,9.7C0,12.4,2.9,13.9,4.8,13.9z"/>
<circle class="st1" cx="2.3" cy="15.1" r="0.6"/>
<circle class="st1" cx="7.6" cy="15.1" r="0.6"/>
<circle class="st1" cx="10.3" cy="15.1" r="0.6"/>
<circle class="st1" cx="5" cy="15.1" r="0.6"/>
<circle class="st1" cx="12.7" cy="15.1" r="0.6"/>
<circle class="st1" cx="18" cy="15.1" r="0.6"/>
<circle class="st1" cx="20.7" cy="15.1" r="0.6"/>
<circle class="st1" cx="15.4" cy="15.1" r="0.6"/>
<circle class="st1" cx="2.3" cy="17.9" r="0.6"/>
<circle class="st1" cx="7.6" cy="17.9" r="0.6"/>
<circle class="st1" cx="10.3" cy="17.9" r="0.6"/>
<circle class="st1" cx="5" cy="17.9" r="0.6"/>
<circle class="st1" cx="12.7" cy="17.9" r="0.6"/>
<circle class="st1" cx="18" cy="17.9" r="0.6"/>
<circle class="st1" cx="20.7" cy="17.9" r="0.6"/>
<circle class="st1" cx="15.4" cy="17.9" r="0.6"/>
<circle class="st1" cx="2.3" cy="20.6" r="0.6"/>
<circle class="st1" cx="7.6" cy="20.6" r="0.6"/>
<circle class="st1" cx="10.3" cy="20.6" r="0.6"/>
<circle class="st1" cx="5" cy="20.6" r="0.6"/>
<circle class="st1" cx="12.7" cy="20.6" r="0.6"/>
<circle class="st1" cx="18" cy="20.6" r="0.6"/>
<circle class="st1" cx="20.7" cy="20.6" r="0.6"/>
<circle class="st1" cx="15.4" cy="20.6" r="0.6"/>
<path class="st2" d="M13.1,13.9c0.9,0,5.6,0,6.6,0c1,0,1.8-1,1.8-1.9c0-1.6-1.7-1.9-1.7-1.9s0.3-1.1-0.5-1.7c-0.8-0.6-1.9,0-1.9,0
	S16.9,7.1,15,7.1c-2.8,0.1-2.6,2.6-2.6,2.6s-1.7,0.2-1.7,2.2C10.7,13.1,12.2,13.9,13.1,13.9z"/>
<path class="st2" d="M4.5,13.9c0.9,0,5.6,0,6.6,0s1.8-1,1.8-1.9c0-1.6-1.7-1.9-1.7-1.9s0.3-1.1-0.5-1.7s-1.9,0-1.9,0
	S8.3,7.1,6.4,7.1C3.7,7.1,3.8,9.6,3.8,9.6s-1.7,0.2-1.7,2.2C2.2,13.1,3.6,13.9,4.5,13.9z"/>
</svg>
