<?xml version="1.0" encoding="utf-8"?>
<!-- Generator: Adobe Illustrator 25.0.0, SVG Export Plug-In . SVG Version: 6.00 Build 0)  -->
<svg version="1.1" id="Layer_1" xmlns="http://www.w3.org/2000/svg" xmlns:xlink="http://www.w3.org/1999/xlink" x="0px" y="0px"
	 viewBox="0 0 22.2 22.1" style="enable-background:new 0 0 22.2 22.1;" xml:space="preserve">
<style type="text/css">
	.st0{fill:#FEDF5A;}
</style>
<g id="XMLID_1_">
	<g>
		<path class="st0" d="M11.1,16.6c3.1,0,5.5-2.5,5.5-5.5s-2.5-5.5-5.5-5.5S5.6,7.9,5.6,11S8.1,16.6,11.1,16.6z M4.5,13.7
			c0,0-3.3-1.5-4.1-2.1s-0.1-1.2,0.4-1.5c0.5-0.2,3.8-1.8,3.8-1.8S3.2,4.3,3.1,3.8s0.5-1,1-0.8c0.5,0.2,4.3,1.5,4.3,1.5
			s1.5-2.9,2-3.8c0.5-0.9,1.4-0.7,1.7,0c0.3,0.7,1.8,3.9,1.8,3.9s3.1-1.1,4.1-1.4s1.5,0.4,1.2,1.3c-0.3,0.9-1.4,4-1.4,4
			s2.8,1.3,3.9,1.9c1.1,0.6,0.7,1.2,0,1.6c-0.7,0.3-3.9,1.9-3.9,1.9s1,3,1.3,4.1c0.3,1.1-0.4,1.4-1.3,1c-1-0.3-3.9-1.3-3.9-1.3
			s-1.5,3-1.9,3.9s-1.2,0.6-1.6,0c-0.4-0.6-2-4-2-4s-2.7,1-4,1.4c-1.3,0.4-1.4-0.4-1.3-1C3.3,17.3,4.5,13.7,4.5,13.7z"/>
	</g>
	<g>
	</g>
</g>
<circle class="st0" cx="11.1" cy="10.9" r="4.1"/>
</svg>
