<?xml version="1.0" encoding="utf-8"?>
<!-- Generator: Adobe Illustrator 25.0.0, SVG Export Plug-In . SVG Version: 6.00 Build 0)  -->
<svg version="1.1" id="Layer_1" xmlns="http://www.w3.org/2000/svg" xmlns:xlink="http://www.w3.org/1999/xlink" x="0px" y="0px"
	 viewBox="0 0 21.9 22.1" style="enable-background:new 0 0 21.9 22.1;" xml:space="preserve">
<style type="text/css">
	.st0{fill:#959494;}
	.st1{fill:#2780BB;}
	.st2{fill:#E7B021;}
</style>
<path class="st0" d="M4.8,13.8c1.9,0,11.2,0,13.3,0s3.7-2.1,3.7-3.8C22,6.7,18.5,6,18.5,6s0.6-2.3-1-3.5s-3.9,0-3.9,0S12.6,0,8.7,0
	C3.1,0.1,3.4,5.2,3.4,5.2S0,5.6,0,9.6C0,12.2,2.9,13.8,4.8,13.8z"/>
<g>
	<path class="st1" d="M0.7,22.1c-0.1,0-0.2,0-0.3-0.1c-0.3-0.2-0.4-0.6-0.2-0.9l3-5.2c0.2-0.3,0.6-0.4,0.9-0.2
		c0.3,0.2,0.4,0.6,0.2,0.9l-3,5.2C1.1,22,0.9,22.1,0.7,22.1z"/>
</g>
<g>
	<path class="st1" d="M8.8,22.1c-0.1,0-0.2,0-0.3-0.1c-0.3-0.2-0.4-0.6-0.2-0.9l3-5.2c0.2-0.3,0.6-0.4,0.9-0.2
		c0.3,0.2,0.4,0.6,0.2,0.9l-3,5.2C9.2,22,9,22.1,8.8,22.1z"/>
</g>
<g>
	<path class="st1" d="M16.9,22.1c-0.1,0-0.2,0-0.3-0.1c-0.3-0.2-0.4-0.6-0.2-0.9l3-5.2c0.2-0.3,0.6-0.4,0.9-0.2
		c0.3,0.2,0.4,0.6,0.2,0.9l-3,5.2C17.4,22,17.2,22.1,16.9,22.1z"/>
</g>
<polygon class="st2" points="15,13.8 17.6,13.8 15.3,17.4 17,17.4 11.9,21.9 14.2,17.9 13.1,17.9 "/>
<polygon class="st2" points="6.3,13.8 8.9,13.8 6.5,17.4 8.3,17.4 3.2,21.9 5.5,17.9 4.4,17.9 "/>
<circle class="st1" cx="6.2" cy="20.7" r="0.6"/>
<circle class="st1" cx="11.5" cy="20.7" r="0.6"/>
<circle class="st1" cx="15.3" cy="20.7" r="0.6"/>
</svg>
