<?xml version="1.0" encoding="utf-8"?>
<!-- Generator: Adobe Illustrator 25.0.0, SVG Export Plug-In . SVG Version: 6.00 Build 0)  -->
<svg version="1.1" id="Layer_1" xmlns="http://www.w3.org/2000/svg" xmlns:xlink="http://www.w3.org/1999/xlink" x="0px" y="0px"
	 viewBox="0 0 40.9 22.1" style="enable-background:new 0 0 40.9 22.1;" xml:space="preserve">
<style type="text/css">
	.st0{fill:#FEDF5A;}
	.st1{fill:#989898;}
</style>
<g id="XMLID_3_">
	<g>
		<path class="st0" d="M40.2,10.3c1.1,0.6,0.7,1.2,0,1.6c-0.7,0.3-3.9,1.9-3.9,1.9s1,3,1.3,4.1c0.3,1.1-0.4,1.4-1.3,1
			c-1-0.3-3.9-1.3-3.9-1.3s-1.5,3-1.9,3.9c-0.4,0.9-1.2,0.6-1.6,0c-0.4-0.6-2-4-2-4s-2.7,1-4,1.4c-1.3,0.4-1.4-0.4-1.3-1
			c0.2-0.6,1.4-4.2,1.4-4.2s-3.3-1.5-4.1-2.1s-0.1-1.2,0.4-1.5c0.5-0.2,3.8-1.8,3.8-1.8s-1.4-4.1-1.5-4.6c-0.1-0.5,0.5-1,1-0.8
			C23.1,3.2,27,4.5,27,4.5s1.5-2.9,2-3.8c0.5-0.9,1.4-0.7,1.7,0c0.3,0.7,1.8,3.9,1.8,3.9s3.1-1.1,4.1-1.4c1-0.3,1.5,0.4,1.2,1.3
			c-0.3,0.9-1.4,4-1.4,4S39.1,9.7,40.2,10.3z M35.3,11.1c0-3.1-2.5-5.5-5.5-5.5s-5.5,2.5-5.5,5.5s2.5,5.5,5.5,5.5
			S35.3,14.1,35.3,11.1z"/>
	</g>
	<g>
	</g>
</g>
<circle class="st0" cx="29.7" cy="11" r="4.1"/>
<path class="st1" d="M6.9,22.1c2.7,0,16,0,19,0s5.3-3.3,5.3-6.1c0.1-5.2-4.8-6.3-4.8-6.3s0.8-3.7-1.5-5.6s-5.6,0-5.6,0
	s-1.5-4.1-7-4.1c-8,0.2-7.6,8.3-7.6,8.3S0,9.1,0,15.4C0,19.7,4.2,22.1,6.9,22.1z"/>
</svg>
