<?xml version="1.0" encoding="utf-8"?>
<!-- Generator: Adobe Illustrator 25.0.0, SVG Export Plug-In . SVG Version: 6.00 Build 0)  -->
<svg version="1.1" id="Layer_1" xmlns="http://www.w3.org/2000/svg" xmlns:xlink="http://www.w3.org/1999/xlink" x="0px" y="0px"
	 viewBox="0 0 22.5 20.7" style="enable-background:new 0 0 22.5 20.7;" xml:space="preserve">
<style type="text/css">
	.st0{fill:#CCCCCC;}
</style>
<path class="st0" d="M2.4,20.7c0.9,0,5.6,0,6.6,0s1.8-1,1.8-1.9c0-1.6-1.7-1.9-1.7-1.9s0.3-1.1-0.5-1.7s-1.9,0-1.9,0
	s-0.5-1.3-2.4-1.3c-2.8,0.1-2.6,2.6-2.6,2.6S0,16.6,0,18.6C0,19.9,1.4,20.7,2.4,20.7z"/>
<path class="st0" d="M8.4,6.8c0.9,0,5.6,0,6.6,0s1.8-1,1.8-1.9c0-1.6-1.7-1.9-1.7-1.9s0.3-1.1-0.5-1.7c-0.8-0.6-1.9,0-1.9,0
	S12.2,0,10.3,0C7.6,0.1,7.7,2.6,7.7,2.6S6,2.8,6,4.7C6,6,7.5,6.8,8.4,6.8z"/>
<path class="st0" d="M14.1,15.9c0.9,0,5.6,0,6.6,0c1,0,1.8-1,1.8-1.9c0-1.6-1.7-1.9-1.7-1.9s0.3-1.1-0.5-1.7c-0.8-0.6-1.9,0-1.9,0
	S17.9,9.1,16,9.1c-2.8,0.1-2.6,2.6-2.6,2.6s-1.7,0.2-1.7,2.2C11.7,15.2,13.1,15.9,14.1,15.9z"/>
</svg>
