<?xml version="1.0" encoding="utf-8"?>
<!-- Generator: Adobe Illustrator 25.0.0, SVG Export Plug-In . SVG Version: 6.00 Build 0)  -->
<svg version="1.1" id="Layer_1" xmlns="http://www.w3.org/2000/svg" xmlns:xlink="http://www.w3.org/1999/xlink" x="0px" y="0px"
	 viewBox="0 0 28.9 22.1" style="enable-background:new 0 0 28.9 22.1;" xml:space="preserve">
<style type="text/css">
	.st0{fill:#979797;}
	.st1{fill:#53BDCE;}
</style>
<path class="st0" d="M8.5,13.8c1.9,0,11.2,0,13.3,0s3.7-2.1,3.7-3.8c0.1-3.2-3.3-3.9-3.3-3.9s0.6-2.3-1-3.5c-1.6-1.2-3.9,0-3.9,0
	S16.1,0,12.3,0C6.8,0.1,7,5.2,7,5.2S3.7,5.7,3.7,9.6C3.7,12.3,6.6,13.8,8.5,13.8z"/>
<path class="st1" d="M5.8,16.8c0,0,0-1.1,0-1.2s0-0.3,0.2-0.3c0.2,0,0.7,0,0.9,0c0.2,0,0.2,0.1,0.2,0.3c0,0.2,0,1.3,0,1.3
	s1.1-0.6,1.2-0.7c0.1-0.1,0.4-0.1,0.4,0c0.1,0.1,0.4,0.7,0.4,0.8c0,0.1,0.1,0.2-0.1,0.4C8.8,17.4,7.8,18,7.8,18s1.2,0.7,1.3,0.7
	s0.1,0.3,0.1,0.4c-0.1,0.1-0.3,0.5-0.4,0.6s-0.2,0.1-0.5,0s-1.1-0.7-1.1-0.7s0,1.1,0,1.3S7,20.6,6.9,20.6s-0.7,0-0.8,0
	c-0.1,0-0.2-0.1-0.2-0.3c0-0.2,0-1.2,0-1.2s-1.1,0.6-1.2,0.6c-0.1,0-0.3,0.1-0.4,0S3.8,19.1,3.8,19c-0.1-0.1,0-0.3,0.2-0.4
	C4.2,18.5,5.1,18,5.1,18S4,17.3,3.8,17.2c-0.1-0.1-0.1-0.3,0-0.4c0.1-0.1,0.4-0.5,0.4-0.6c0.1-0.1,0.2-0.1,0.4,0
	C4.8,16.2,5.8,16.8,5.8,16.8z"/>
<path class="st1" d="M14,18.2c0,0,0-1.1,0-1.2c0-0.2,0-0.3,0.2-0.3s0.7,0,0.9,0c0.2,0,0.2,0.1,0.2,0.3s0,1.3,0,1.3s1.1-0.6,1.2-0.7
	c0.1-0.1,0.4-0.1,0.4,0c0.1,0.1,0.4,0.7,0.4,0.8c0,0.1,0.1,0.2-0.1,0.4c-0.3,0.2-1.2,0.7-1.2,0.7s1.2,0.7,1.3,0.7
	c0.1,0.1,0.1,0.3,0.1,0.4c-0.1,0.1-0.3,0.5-0.4,0.6c-0.1,0.1-0.2,0.1-0.5,0c-0.2-0.1-1.1-0.7-1.1-0.7s0,1.1,0,1.3s-0.2,0.3-0.3,0.3
	s-0.7,0-0.8,0S14,21.9,14,21.8c0-0.2,0-1.2,0-1.2s-1.1,0.6-1.2,0.6c-0.1,0-0.3,0.1-0.4,0c-0.1-0.1-0.4-0.6-0.5-0.8
	c-0.1-0.1,0-0.3,0.2-0.4c0.2-0.1,1.1-0.6,1.1-0.6s-1.1-0.7-1.3-0.8c-0.1-0.1-0.1-0.3,0-0.4s0.4-0.5,0.4-0.6s0.2-0.1,0.4,0
	S14,18.2,14,18.2z"/>
<path class="st1" d="M22.2,16.8c0,0,0-1.1,0-1.2s0-0.3,0.2-0.3s0.7,0,0.9,0s0.2,0.1,0.2,0.3c0,0.2,0,1.3,0,1.3s1.1-0.6,1.2-0.7
	c0.1-0.1,0.4-0.1,0.4,0c0.1,0.1,0.4,0.7,0.4,0.8c0,0.1,0.1,0.2-0.1,0.4c-0.3,0.2-1.2,0.7-1.2,0.7s1.2,0.7,1.3,0.7
	c0.1,0.1,0.1,0.3,0.1,0.4c-0.1,0.1-0.3,0.5-0.4,0.6s-0.2,0.1-0.5,0c-0.2-0.1-1.1-0.7-1.1-0.7s0,1.1,0,1.3s-0.2,0.3-0.3,0.3
	c-0.1,0-0.7,0-0.8,0c-0.1,0-0.2-0.1-0.2-0.3c0-0.2,0-1.2,0-1.2s-1.1,0.6-1.2,0.6s-0.3,0.1-0.4,0s-0.4-0.6-0.5-0.8
	c-0.1-0.1,0-0.3,0.2-0.4c0.2-0.1,1.1-0.6,1.1-0.6s-1.1-0.7-1.3-0.8s-0.1-0.3,0-0.4c0.1-0.1,0.4-0.5,0.4-0.6c0.1-0.1,0.2-0.1,0.4,0
	C21.2,16.2,22.2,16.8,22.2,16.8z"/>
<path class="st1" d="M1.2,14.6c0,0,0-0.6,0-0.7s0-0.2,0.1-0.2c0.1,0,0.4,0,0.5,0s0.1,0,0.1,0.2s0,0.7,0,0.7s0.6-0.3,0.7-0.4
	c0.1,0,0.2,0,0.2,0c0,0.1,0.2,0.4,0.2,0.4c0,0,0,0.1-0.1,0.2c-0.2,0.1-0.7,0.4-0.7,0.4s0.7,0.4,0.7,0.4c0.1,0,0.1,0.2,0,0.2
	c0,0.1-0.2,0.3-0.2,0.4c0,0.1-0.1,0.1-0.3,0c-0.1,0-0.6-0.4-0.6-0.4s0,0.6,0,0.7s-0.1,0.1-0.2,0.1s-0.4,0-0.5,0c0,0-0.1-0.1-0.1-0.2
	c0-0.1,0-0.7,0-0.7s-0.6,0.3-0.7,0.4c0,0-0.2,0.1-0.2,0c-0.1-0.1-0.2-0.4-0.3-0.4c0-0.1,0-0.2,0.1-0.3s0.6-0.3,0.6-0.3
	s-0.6-0.4-0.7-0.5s0-0.2,0-0.2s0.2-0.3,0.2-0.4s0.1-0.1,0.2,0C0.6,14.2,1.2,14.6,1.2,14.6z"/>
<path class="st1" d="M11,15.1c0,0,0-0.6,0-0.7c0-0.1,0-0.2,0.1-0.2c0.1,0,0.4,0,0.5,0s0.1,0,0.1,0.2s0,0.7,0,0.7s0.6-0.3,0.7-0.4
	c0.1,0,0.2,0,0.2,0s0.2,0.4,0.2,0.4c0,0,0,0.1-0.1,0.2c-0.2,0.1-0.7,0.4-0.7,0.4s0.7,0.4,0.7,0.4s0.1,0.2,0,0.2
	c0,0.1-0.2,0.3-0.2,0.4c0,0.1-0.1,0.1-0.3,0c-0.1,0-0.6-0.4-0.6-0.4s0,0.6,0,0.7c0,0.1-0.1,0.1-0.2,0.1c-0.1,0-0.4,0-0.5,0
	c0,0-0.1-0.1-0.1-0.2s0-0.7,0-0.7s-0.6,0.3-0.7,0.4c0,0-0.2,0.1-0.2,0c-0.1-0.1-0.2-0.4-0.3-0.4c0-0.1,0-0.2,0.1-0.3
	c0.1-0.1,0.6-0.3,0.6-0.3s-0.6-0.4-0.7-0.5c-0.1-0.1,0-0.2,0-0.2s0.2-0.3,0.2-0.4c0,0,0.1-0.1,0.2,0C10.4,14.8,11,15.1,11,15.1z"/>
<path class="st1" d="M17.7,15.1c0,0,0-0.6,0-0.7c0-0.1,0-0.2,0.1-0.2c0.1,0,0.4,0,0.5,0c0.1,0,0.1,0,0.1,0.2s0,0.7,0,0.7
	s0.6-0.3,0.7-0.4c0.1,0,0.2,0,0.2,0c0,0.1,0.2,0.4,0.2,0.4c0,0,0,0.1-0.1,0.2c-0.2,0.1-0.7,0.4-0.7,0.4s0.7,0.4,0.7,0.4
	s0.1,0.2,0,0.2c0,0.1-0.2,0.3-0.2,0.4c0,0.1-0.1,0.1-0.3,0c-0.1,0-0.6-0.4-0.6-0.4s0,0.6,0,0.7c0,0.1-0.1,0.1-0.2,0.1s-0.4,0-0.5,0
	c0,0-0.1-0.1-0.1-0.2c0-0.1,0-0.7,0-0.7s-0.6,0.3-0.7,0.4c0,0-0.2,0.1-0.2,0s-0.2-0.4-0.3-0.4c0-0.1,0-0.2,0.1-0.3
	c0.1-0.1,0.6-0.3,0.6-0.3s-0.6-0.4-0.7-0.5c-0.1-0.1,0-0.2,0-0.2c0-0.1,0.2-0.3,0.2-0.4c0,0,0.1-0.1,0.2,0
	C17.2,14.8,17.7,15.1,17.7,15.1z"/>
<path class="st1" d="M26.9,15.1c0,0,0-0.6,0-0.7c0-0.1,0-0.2,0.1-0.2s0.4,0,0.5,0c0.1,0,0.1,0,0.1,0.2s0,0.7,0,0.7s0.6-0.3,0.7-0.4
	s0.2,0,0.2,0c0,0.1,0.2,0.4,0.2,0.4c0,0,0,0.1-0.1,0.2c-0.2,0.1-0.7,0.4-0.7,0.4s0.7,0.4,0.7,0.4s0.1,0.2,0,0.2
	c0,0.1-0.2,0.3-0.2,0.4s-0.1,0.1-0.3,0s-0.6-0.4-0.6-0.4s0,0.6,0,0.7c0,0.1-0.1,0.1-0.2,0.1c-0.1,0-0.4,0-0.5,0s-0.1-0.1-0.1-0.2
	c0-0.1,0-0.7,0-0.7s-0.6,0.3-0.7,0.4c0,0-0.2,0.1-0.2,0c-0.1-0.1-0.2-0.4-0.3-0.4c0-0.1,0-0.2,0.1-0.3s0.6-0.3,0.6-0.3
	s-0.6-0.4-0.7-0.5s0-0.2,0-0.2s0.2-0.3,0.2-0.4c0,0,0.1-0.1,0.2,0C26.4,14.8,26.9,15.1,26.9,15.1z"/>
</svg>
